<?xml version="1.0" encoding="UTF-8"?>
<svg width="816.03497mm" height="118.92823mm" version="1.1" viewBox="0 0 816.03498 118.92823" xmlns="http://www.w3.org/2000/svg">
	<g transform="translate(-244.3362,400.72826)">
		<path d="m246.52253-400.72826-1.69333 9.60786c0 3.01556 1.69663 7.29102 5.0892 12.81961 3.51828 5.52859 5.21564 9.04785 5.0892 10.5557l-10.1784 14.85368-7e-3 6.76351 13.58135-14.08002 1.50007 0.9387c0 0.12628-0.24287 0.82326-0.74544 2.07987-0.377 1.25639-0.57058 2.25549-0.57058 3.00934 0 1.75914 1.19248 2.64125 3.57993 2.64125l6.0371-5.46655c0-1.25656-0.82384-2.13862-2.45718-2.64124-1.13085-0.25114-2.19748-0.50351-3.2026-0.7546-1.00495-0.25115-1.44246-0.81379-1.31601-1.69336 0.25127-0.87975 0.56167-1.06394 0.93869-0.56137 1.75914 0.37695 7.16868 1.56953 16.21549 3.57994 6.65945 1.38214 11.86621 2.88517 15.63572 4.51861l0.57058-4.33456-8.29181-10.36246c-1.75914 1.25642-3.64936 1.88659-5.65978 1.88659-1.13085 0-1.87769-0.44575-2.25471-1.32522 7.28772-1.13085 15.25766-8.28627 23.92753-21.47953l-4.1413-0.57061c-7.41335 0-14.63643 2.63719-21.67282 7.9145-1.24375 0.92056-2.42964 1.9076-3.57992 2.9265 4.9802-5.94013 9.8265-12.55207 14.51296-19.88744-0.62829-0.12628-2.2665 0.12629-4.90514 0.75466-2.513 0.62809-4.20963 0.9387-5.0892 0.9387-1.00513 0-1.56689-0.24313-1.69334-0.74547-3.26689 0-6.15614 2.31754-8.66912 6.96661-1.50786 2.88994-3.33049 7.79543-5.46651 14.70621-2.13605 6.78511-3.83262 11.11895-5.08921 13.0037l-0.19326-5.84386c-0.25128-5.65425-0.50371-11.37424-0.75464-17.15417-1.00512-6.53382-4.02042-11.05209-9.04644-13.56508zm-2.0861 57.07832 0.39277 4.10271c19.74906 0.1804 36.36872-3.40172 49.76004-2.94509-2.63866 3.01555-5.90592 5.97239-9.80108 8.86238l-0.57058-2.64125c1.63341-2.76442 2.45717-4.20813 2.45717-4.33455-1.25658-0.12632-2.57511 1.44499-3.95724 4.71188-1.75915 3.89517-2.95163 6.15423-3.57993 6.78252-9.29811 7.79028-17.97495 11.68768-26.01657 11.68768-2.43898 0-5.20673 3.53575-8.29181 3.02776v6.18435c12.43936 8.92113 22.30804 13.65517 28.84187 17.92724l15.82897-6.40525-8.86239-3.01851c-4.77468-5.77998-15.76911-10.18134-32.98316-13.19694 0.50256-1.38214 2.07324-2.00388 4.71188-1.8774 1.88476 0.25114 3.77503 0.4349 5.65978 0.56137 2.38737 0.12633 5.83904-0.25256 10.36246-1.13199 4.52341-0.87971 7.79065-1.31598 9.80108-1.31598 7.79027 0 18.72627 2.20074 32.7991 6.59848l11.67848 15.07435 17.53151 5.84381v-2.26392c-7.41335-9.04681-11.31067-13.75865-11.68767-14.13565-4.39775-4.02074-9.86574-6.72559-16.39956-8.10773l10.93303-3.00934 24.12998 10.73975 7.15986-0.9387 11.68766 6.59852v-2.64126l-27.51664-18.66346c13.06759-1.75914 22.80183-6.52945 29.20998-14.3197l-19.22484-0.57055c-6.03119-0.12633-13.50631 3.64567-22.42745 11.31034-8.92115 7.53901-16.33785 11.31035-22.24339 11.31035-1.38213 0-5.14428-0.63008-11.30115-1.88659-6.15687-1.25662-9.99575-2.32305-11.50362-3.2026l29.97382-17.15424 7.72123 5.28249-2.82529 3.38666-2.26391-1.12273h-1.87739l3.95725 2.82524 4.71187-5.08917-10.17839-7.91448 3.57993-3.77318h72.18748l18.84752 12.62637-3.77318 5.46649-10.73977-9.6078-6.59848 5.65058 3.01855 4.90511-5.84383 6.21195 6.02788 5.46655 12.25826-9.56183c-0.38359 0.23701-0.65426 0.4349-1.14116 0.70861-1.88477 1.00534-3.1357 1.50932-3.76398 1.50932-0.87956 0-2.1981-1.31858-3.95724-3.95727 0.50255-0.12633 1.37554-0.50365 2.63201-1.13194 1.2566-0.75385 2.01283-1.13199 2.26393-1.13199 0.12632 0 0.94011 0.37791 2.44796 1.13199 1.49913 0.74958 2.75253 1.12765 3.75479 1.13194l6.04629-4.72108 1.8866 4.15052c0 4.14645-4.45986 9.23637-13.38102 15.26758-11.68546 8.04162-18.34605 13.06392-19.97947 15.07435l5.28245 0.94787 17.52233-6.41436c7.79029-7.79035 11.87203-15.26548 12.24904-22.42748l0.75463 4.52783c0 2.38736-0.62081 5.33493-1.87739 8.85315-1.00512 2.76432-2.08096 5.59516-3.21179 8.48506l6.4144 15.07435c1.00512-2.38737 2.00422-4.8309 3.00936-7.34388 1.13083-3.2669 1.70253-5.78718 1.70253-7.54638 0-3.76949-1.51214-9.22831-4.52784-16.39037l1.13195-2.45715c3.64385 7.91597 7.16318 13.45153 10.55573 16.59279 4.64908 4.39774 10.5535 6.58929 17.71556 6.58929l4.90515-1.31603c-3.39239-7.1621-8.17203-12.25197-14.32891-15.26757-4.77469-1.88471-9.61259-3.83345-14.51295-5.84387-4.90036-2.01038-7.9156-5.64653-9.04645-10.92383l38.07237 14.31973 0.75465 4.52779c0.50254 0.37694 5.03006 4.20672 13.57426 11.49444 5.02601 4.27217 10.23272 7.16127 15.63571 8.66912l15.46086-7.15984c-22.99401-9.67506-37.0036-14.95863-42.02961-15.83819l1.69333-1.69332c1.63342 0.25068 3.38852 0.37743 5.27326 0.37743 2.63868 0 6.60362-0.31052 11.88094-0.93867 5.27729-0.62813 9.23306-0.94793 11.87172-0.94793 12.31371 0 21.35941 1.57056 27.13933 4.71188 1.25658 0.62832 5.4059 4.21521 12.44232 10.74899 5.52857 5.02602 12.81005 8.91416 21.85686 11.67849v-2.82529c-3.89517-4.52342-7.85094-9.04169-11.87172-13.56509-4.27213-4.02078-9.61408-6.59955-16.02224-7.7304l10.93303-3.57994 23.93671 10.73979 7.35313-0.75467 11.4944 6.97581c0-11.05724-9.17174-18.34779-27.51664-21.86606 12.81631-1.38212 22.43371-5.96801 28.84186-13.7583l-18.66345-0.9387c-6.1569-0.37696-13.75797 3.26833-22.80478 10.93302-9.04681 7.53901-16.64788 11.30116-22.80476 11.30116-1.63341 0-5.15275-0.5625-10.55573-1.69337-5.90553-1.25636-9.60925-2.26465-11.11709-3.01851l29.58731-17.14504 7.91448 5.08923c-0.12632 0.75385-0.94013 1.13197-2.44797 1.13197-3.01554 0.12497-4.52783 0.56217-4.52783 1.31599l3.96645 2.64124 4.51863-5.0892-9.80109-7.16904 3.95724-4.51865h73.50352l17.15417 12.44233-3.77318 5.65058-11.11709-9.80108c-1.25657 0.12632-2.44908 1.0662-3.57993 2.82528-1.13085 1.63342-1.69333 3.204-1.69333 4.71189 0 1.63341 0.81458 2.57414 2.44798 2.8253l-6.22116 6.41442 6.02789 5.27324c5.65425-3.01556 12.38246-8.35756 20.17275-16.02222l1.88658 5.84382-4.33456 8.86237c-4.39772 1.13085-9.93336 3.64201-16.59282 7.53719-8.04162 4.77467-12.05577 8.98259-12.05577 12.62637l5.45729 0.9479c7.16208 0 13.8226-3.08286 19.9795-9.23973 6.15683-6.15686 9.17287-12.81734 9.04644-19.97946 0.87956 0.12632 1.32522 1.76391 1.32522 4.90513 0 1.75912-0.69775 4.58069-2.07987 8.47586-1.75914 5.15164-2.69883 8.04087-2.82528 8.66916l6.22115 15.46081c0.87958-2.5129 1.82018-4.96576 2.82529-7.35308 1.38211-3.26694 2.07991-5.77804 2.07991-7.53718 0-3.51821-1.63827-9.17063-4.9052-16.96092l0.9479-2.26392c3.7695 7.79029 7.3472 13.31671 10.7398 16.5836 4.7747 4.52342 10.7468 6.78257 17.9088 6.78257l4.896-1.1228c-3.1412-7.16177-7.8532-12.31958-14.1357-15.46086-5.026-1.88474-10.0483-3.89181-15.0743-6.02785-5.02605-2.13604-7.98285-5.84905-8.86243-11.1263l38.44973 14.70619 0.9387 4.89598c4.2721 4.14637 8.6059 8.36339 13.0036 12.63556 5.2773 4.90032 10.4933 7.3439 15.645 7.3439l15.6449-6.96662c-3.3926-0.37695-8.1629-2.51921-14.3197-6.41438-5.403-3.39255-11.123-5.08921-17.1542-5.08921-1.3821 6e-5 -2.8267 0.0677-4.3346 0.1932l-6.0279-4.90511c0-1.00532 0.9405-1.50932 2.8253-1.50926 0.7539 0 1.8205 0.12632 3.2026 0.37742l2.2639 0.37741c2.7644 0.25114 6.4681-0.12631 11.1171-1.13192 5.1517-1.13088 8.797-1.69337 10.9331-1.69337 2.0104 0 5.7817 0.75617 11.3103 2.26392 5.6543 1.38194 9.6684 2.07063 12.0558 2.07063 1.6334 0 3.01961-0.25208 4.15051-0.75461 5.5286 7.16211 10.4925 12.31959 14.8903 15.46087 5.7799 4.39774 12.3144 7.09345 19.6022 8.09854v-1.8866l-11.3104-14.697c-4.1465-4.1464-9.6729-6.78366-16.5836-7.91451l10.7397-3.01856 23.9368 10.55574 7.1598-0.75466 12.065 6.40523c-0.1263-9.54943-9.4233-16.64641-27.8939-21.29549 5.1516-0.50255 10.3676-2.07322 15.6449-4.71187 5.7799-2.76431 10.1137-6.09001 13.0037-9.98518-2.0105 0.75385-4.5892 0.93841-7.7305 0.56141l-7.9145-0.56141c-6.2825 0-12.2453 1.94869-17.8996 5.84387-4.5234 3.64382-9.1184 7.28917-13.7675 10.93302-5.1517 3.89517-10.2324 5.83461-15.2584 5.83461l-23.37531-4.71187 29.96451-17.14497 7.5464 4.71188c-0.1265 0.75384-1.2597 1.18955-3.3959 1.31603-2.136 0-3.2025 0.37788-3.2025 1.13193l3.7639 2.82528 4.5279-5.0892-9.9944-7.15984 4.7119-4.71188 69.5555 0.37742 19.2248 12.24904-3.7732 5.46655-11.1171-9.42376c-1.2565 0.25114-2.5165 1.1919-3.7731 2.82528-1.1309 1.63338-1.6934 3.20404-1.6934 4.71188 0 1.50785 0.7469 2.44831 2.2547 2.8253l-5.8346 6.22114 6.0279 5.65978c1.6333 0 4.6487-1.69661 9.0464-5.08923 5.403-4.14644 8.5442-6.47322 9.4238-6.97578l2.0706-3.95723 1.5093 5.27325-3.9572 9.04644-15.4517 5.08921-13.1969 15.26757 5.4665 0.57061c4.0208 0 9.3628-2.76323 16.0222-8.29182 6.7851-5.52859 10.6826-10.36653 11.6877-14.51297l1.5001-6.0371 0.7546 5.08921c0 2.01042-0.6885 4.84121-2.0707 8.48505-1.7591 4.90036-2.6988 7.66351-2.8252 8.29184l5.2732 13.56509h2.0799c0.7538-2.1361 1.5009-4.2016 2.2547-6.21197 1.0053-2.76432 1.5092-4.90652 1.5092-6.41442 0-4.39774-1.503-10.10865-4.5186-17.14498l0.9387-2.26393c4.1465 8.66988 7.6658 14.38986 10.5557 17.15418 4.3978 4.14644 10.4867 6.21196 18.277 6.21196l4.3437-1.31604c-5.78-7.66448-10.6177-12.93901-14.5129-15.82894-4.6491-3.6439-10.9315-6.40708-18.8475-8.29183l-5.0892-8.67831c0.754-0.25114 6.4647 1.94945 17.1449 6.59848 11.4342 5.02602 18.4728 7.78921 21.1115 8.29177l0.9387 4.33462c1.0475 0.69838 5.4488 4.33483 12.5343 10.31641 1.0524 1.8709 3.3904 3.83603 7.0678 5.89904 1.9746 1.12073 3.7541 1.95049 5.4113 2.59522 1.4835 0.74495 2.9497 1.40654 4.3898 1.92343l1.8866-0.56142v-0.0472c1.5948-0.11782 4.4468-1.02002 8.6692-2.77925 4.5234-1.88474 7.1606-3.39698 7.9144-4.52783-5.026 0.12632-8.1672-0.4368-9.4237-1.69335-3.6439-3.64384-7.7257-5.97067-12.2491-6.9758-2.2617-0.62829-7.032-1.13226-14.3197-1.50926l-9.0464-4.89594c3.0976-0.51628 6.1705-0.96461 9.2305-1.38044 0.8557 0.5047 2.2861 0.65195 4.3346 0.43255 5.9055-0.75386 11.3735-1.13198 16.3995-1.13198 7.0363 0 16.0237 0.94978 26.9553 2.83453 4.9003 0.75381 8.9821 2.9454 12.249 6.58925 2.7643 3.26687 5.5275 6.47576 8.2918 9.61702 4.0208 3.51824 9.6732 5.77739 16.9609 6.78252v-2.44796c-3.8951-4.64907-7.7248-9.30248-11.4944-13.95158-4.272-4.02075-9.7401-6.59038-16.3995-7.72123l11.1263-3.39586 24.1208 10.5557 7.1598-0.75461 11.3104 6.97575v-3.20256l-16.3996-16.39957-10.933-2.44797c8.1672 0.50259 17.843-4.20929 29.0259-14.13564-1.8847 0.75382-4.4543 0.99652-7.7212 0.74544l-7.9237-0.74544c-6.4081 0-12.497 1.88114-18.277 5.65059l-13.9515 10.5557c-5.403 3.7695-10.9294 5.65058-16.5836 5.65058l-21.8661-4.33456 30.1578-17.14498 7.3532 4.89593c0 0.75386-0.6885 1.13194-2.0707 1.13194-2.6386 0.12632-4.0834 0.5037-4.3345 1.13199l3.2025 2.64119 4.896-4.90512-9.9851-7.15984 3.2026-4.33459h75.20602l16.2063 12.81046-3.5799 5.28245-10.9331-9.8011c-1.2566 0.25116-2.51662 1.19192-3.77322 2.8253-1.1308 1.63342-1.6933 3.1457-1.6933 4.52783 0 1.63343 0.7562 2.6323 2.2639 3.00934l-6.0371 6.22115 5.8438 5.65976 12.46082-9.71824c-0.3855 0.22286-0.6899 0.42642-1.1504 0.6718-1.8848 1.00534-3.1449 1.50008-3.7732 1.50008-0.3769 0-1.1914-0.49493-2.4479-1.50008l-1.8866-1.88658 5.2824-2.64125 2.2639 1.13199c1.5188 0.58394 2.8564 0.86091 4.0493 0.90189l5.7518-4.48183 1.8774 5.0892-5.0892 9.60779c-13.1933 3.01566-22.42342 9.6762-27.70072 19.97952l5.0892 0.56138c7.16202 0 13.69662-3.07362 19.60222-9.23053 5.5286-5.77988 8.8543-12.24685 9.9851-19.40891l0.5706 4.51865c0 2.38733-0.5717 5.27655-1.7026 8.66912-1.1308 2.88993-2.1974 5.72074-3.2025 8.48506l6.2211 15.26762 3.0185-7.54637c1.2565-3.26694 1.8774-5.77803 1.8774-7.53715 0-0.75386-0.6884-3.39111-2.0706-7.91451-1.2564-4.64907-1.8866-7.72269-1.8866-9.23053 0-0.75399 0.1263-1.25816 0.3774-1.50926 4.2721 8.79552 7.7914 14.50632 10.5557 17.14498 4.2722 4.14645 10.3026 6.2212 18.0929 6.2212l4.5278-1.13199c-2.1358-5.02574-6.4114-9.79628-12.8196-14.3197-6.4081-4.64907-12.3126-7.2862-17.7156-7.91449l-7.7304-10.37166 0.7546-0.75465c9.9264 5.77992 22.559 10.81155 37.8883 15.08353l0.5706 3.09222v-6.18435c-2.0324-0.33123-4.0989-0.68869-6.4144-1.24241-6.5338-1.50787-11.1197-3.27202-13.7583-5.28245 1.8847-1.13085 3.4553-1.69336 4.7119-1.69336 2.0104 0 5.084 0.81459 9.2305 2.44802 2.4072 0.94827 4.457 1.58144 6.2303 1.97859v-13.81344c-1.87 0.82768-3.8029 1.83083-5.853 3.16577-5.2773 3.51816-8.0988 5.28247-8.4758 5.28247h-3.0186c0.1263-1.13085 0.6884-2.64312 1.6933-4.52782 1.0053-1.88484 1.5093-2.95153 1.5093-3.20263 0-1.13085-0.7562-2.39104-2.2639-3.77318-1.3822-1.38212-2.6332-2.07063-3.764-2.07063-1.0051 0-2.0134 0.37836-3.0186 1.13193-1.0053 0.75386-1.5092 1.63606-1.5092 2.64125 0 1.50784 0.6301 2.70033 1.8866 3.57991l4.1505 2.2639v1.12276c0.1263 1.00513-0.572 1.95491-2.0799 2.83451-1.3821 0.87958-2.5748 1.31599-3.5799 1.31599-2.89 0-7.4082-2.13312-13.5651-6.40519-4.6491-3.26699-8.7985-6.5342-12.4423-9.80109 1.3821-0.87956 3.9609-1.32522 7.7305-1.32522 15.9532 0 29.4822 0.0975 42.6001 0.22099v-13.34418l-8.4758 9.16611-20.9274-0.37742-0.7547-0.9387 11.5037-14.70621 1.316 0.94789c0 0.37695-0.1843 1.06545-0.5614 2.07063-0.2506 0.87958-0.3774 1.56808-0.3774 2.07064 0 1.25661 1.125 2.20625 3.3867 2.83453 0.3769-3.14128 1.6371-6.28254 3.7731-9.42376 2.1361-3.14127 4.5888-5.46795 7.3532-6.9758l-4.1505-4.15051c-5.0261 2.63866-10.6785 7.79619-16.961 15.46086l-1.1319-5.0892c0-0.12629 0.252-0.94945 0.7546-2.45716 0.6281-1.63342 0.9387-2.95218 0.9387-3.95727 0-2.13608-1.3769-3.20262-4.1413-3.20262l-5.8438 5.08921c5.1516 4.52341 7.788 7.66463 7.9144 9.42376l-10.933 13.00371-90.08712-0.37742-2.2639-1.50925c3.2669-5.77988 9.8599-9.10562 19.7862-9.98514l20.9274 6.22113c2.8899-1.00513 5.7792-1.94572 8.6691-2.82528 4.5234-1.25644 7.8491-1.8866 9.9851-1.8866 1.1309 0 2.013 0.12632 2.6413 0.37742-2.3874-2.63866-5.5962-5.02385-9.6171-7.15984-4.0208-2.2617-7.7245-3.3959-11.117-3.3959-8.6699 0-16.8335 2.63719-24.4981 7.91449l-1.5093-1.50925c12.3136-9.42372 26.0037-14.13565 41.0817-14.13565l10.3717 1.88659 4.71182 7.9145 4.3346-3.76399c0-0.25114-0.3195-1.13335-0.9479-2.64124-0.5028-1.50785-0.7454-2.57434-0.7454-3.20262 0-0.41135 0.098-0.69646 0.2851-0.88348h-0.01c-0.3252 0.0754-0.6224 0.12911-0.8467 0.12911-0.7539 0-1.132-0.44575-1.132-1.32522l4.5279-1.50008c9.0467 0 15.5136-0.50417 19.4089-1.50931 7.0363-1.63332 12.3784-5.40481 16.0222-11.31035l-15.0741-2.44796c-8.5442 0-19.7323 5.65242-33.55382 16.96093l-17.7155 0.18423c12.8163-5.77997 20.6694-13.50708 23.55942-23.18212-4.64912 0-13.19082 4.90549-25.63012 14.70625-14.4498 11.30851-24.1932 18.02751-29.2192 20.16351 7.5391-5.65422 15.6442-16.32903 24.3141-32.03524h-2.0705l-22.0502 14.13565-5.8438 22.42742c-6.4082 6.03122-12.7491 10.42343-19.0316 13.18776l-5.2825-0.93871c8.0417-5.27729 13.7616-10.24122 17.1542-14.8903 3.5182-4.64902 6.9115-11.68763 10.1784-21.11139-1.3821 3.39255-5.716 8.91893-13.0037 16.58361-8.0417 8.41854-13.1315 14.51664-15.2676 18.28615l-0.1932-2.26392c10.0521-17.96796 15.7721-31.78399 17.1543-41.45904-4.1465 3.39255-8.296 6.71825-12.4424 9.98513-4.0208 4.02079-6.0278 8.67429-6.0278 13.9516l1.6933 11.11708-7.9145 10.73979-24.0748-0.22993-27.9491-1.64733 12.884-10.56494c0.3996-0.10697 0.7729-0.19931 1.132-0.24832l0.8742 0.63503 1.4541 0.94789c-0.567 0.76591-0.8835 1.6893-0.8835 2.81605 0 2.76433 1.5031 4.15051 4.5186 4.15051 1.3821 0 2.7007-0.5717 3.9573-1.70249 1.2564-1.25661 1.8866-2.50739 1.8866-3.764 0-2.6387-1.1926-3.95728-3.58-3.95728-0.2511 0-0.6293 0.12629-1.1319 0.37743-0.4739 0.23606-0.8266 0.35433-1.0768 0.36799-0.1014-0.0768-0.1332-0.10318-0.2393-0.18423-0.5111-0.38354-0.9123-0.69768-1.2884-1.00311-0.075-0.1602-0.1565-0.31381-0.221-0.50615 0.6213-0.35527 1.1128-0.54003 1.546-0.64421l12.0282 3.66278-0.2945-0.20261c0.4335 0.13192 1.5358 0.51512 1.7946 0.57976 3.1413 0.12633 6.224 0.25066 9.2397 0.37742 3.5182 0.25114 6.349 1.51142 8.4851 3.77318l0.5614-6.0371c0-1.50785-0.9405-3.33041-2.8253-5.46649-1.8848-2.26166-3.5814-3.38667-5.0892-3.38667-0.6283 0-1.6365 0.3779-3.0186 1.13194-1.3822 0.62814-2.3227 0.9387-2.8253 0.9387-0.6281 0-1.2584-0.43632-1.8866-1.31603 0.8796-0.75381 2.5762-1.63606 5.0892-2.6412 2.513-1.00513 4.394-2.01343 5.6506-3.01857 0.6283-0.62828 3.0225-3.64346 7.1691-9.04643 3.6437-4.90036 5.7769-7.35313 6.4052-7.35313-8.7956 0-16.3382 2.20073-22.6207 6.59847-3.5183 2.51299-7.348 6.5948-11.4944 12.24906-3.2669 4.39774-5.7781 6.59847-7.5372 6.59847l-0.3774-0.18423-0.3774-2.07983c1.1308-2.51298 3.5836-5.27622 7.3531-8.29182 4.5234-3.64384 7.345-6.15504 8.4758-7.53717 1.1309-1.38214 3.0212-4.27137 5.6598-8.66911 2.3874-3.64384 4.3945-6.34865 6.0279-8.10778-3.7696 1.38213-7.1628 2.07987-10.1784 2.07987-0.114 0-0.1532 0.0236-0.1659 0.0646-2.3159 1.02045-4.6166 1.99703-6.6445 3.11978-3.315 1.40744-6.6676 4.01504-8.8348 9.43295-2.1334 5.86709-4.3284 11.72886-6.5524 17.59595-0.3591-0.99104-0.7211-2.10658-0.8283-3.49711 0.019-0.26575 0.01-0.25255 0.028-0.53376 0.2507-3.14127 0.3775-5.65242 0.3775-7.53717 0-11.43418-3.7622-19.03525-11.3012-22.80475l-1.7026 10.5557c0 3.7695 1.2602 7.91892 3.7732 12.44233 2.2617 3.76951 4.4624 7.53161 6.5985 11.30112l-19.0408 19.60217-21.2955-0.75465 1.8038-2.38356c-2.7839 2.17368-8.2679 3.2219-16.5008 3.13821 0.5025 0-7.9806 0.12632-25.446 0.37742-15.3293 0.25116-27.4579 0.25116-36.379 0-12.8163-0.25114-20.2238-0.93978-22.2342-2.07067 1.7591-2.88989 4.5223-5.27506 8.2918-7.15986 3.8951-1.88465 7.5989-2.8921 11.1171-3.01852l19.2248 6.22114c3.3926-1.00512 6.7183-2.01342 9.9852-3.01853 4.7747-1.50788 8.4201-2.2639 10.933-2.2639 1.0053 0 1.8874 0.12632 2.6412 0.37742-6.9107-6.91078-13.8817-10.36247-20.9181-10.36247-9.1726 0-17.4713 2.57882-24.8847 7.73041l-1.5092-0.57056c4.3977-4.39774 10.8063-8.04309 19.2248-10.93302 7.7903-2.76432 15.207-4.14132 22.2434-4.14132 6.6595 0 9.9851 1.37695 9.9851 4.14132 0 2.63865 0.1264 4.20931 0.3775 4.71187 0.5025 1.00529 2.0732 1.50927 4.7118 1.50927l3.7733-3.95728c0-0.12628-0.3779-1.62856-1.132-4.51859-0.6283-1.88471-0.4344-2.83448 0.5706-2.83448 0.6282 0 1.5688 0.31946 2.8253 0.94789l10.5465 2.77006c-0.7669-0.40051-1.6304-0.81878-2.6321-1.2608-3.5182-1.63342-6.2229-2.64153-8.1077-3.01853 0.1263 0-0.8149 0.18423-2.8253 0.56138-1.6334 0.25114-2.4479 0.01-2.4479-0.74547l4.7118-1.13194c20.481 0 32.4835-4.52745 36.0017-13.57427l-15.2676-2.44796c-9.2981 0-19.9144 5.65242-31.8512 16.96093-1.1308 0-3.2731-0.12628-6.4144-0.37742-3.1412-0.25067-5.5265-0.37742-7.1599-0.37742-2.6386 0.12629-4.7717 0.5037-6.4051 1.13198 12.6906-5.40297 20.4761-13.19769 23.3661-23.37535-4.3977 0-12.881 4.96387-25.446 14.89029-14.3241 11.43414-24.0583 18.16228-29.21 20.17274 10.6803-8.16729 18.7855-18.78363 24.3141-31.85123-1.7592-0.75385-3.4558-1.13193-5.0893-1.13193-6.5338 0-12.4382 5.27434-17.7155 15.82895-3.8952 7.79029-6.348 15.26536-7.3531 22.42747l-13.7583 12.62633-4.7119 0.37742-5.27331-0.56137c7.66471-5.90555 13.31711-11.1215 16.96091-15.64491 5.0261-6.0312 8.2257-12.81777 9.6079-20.35678-12.0624 7.53901-21.2342 19.03746-27.51671 34.49243l-0.184-1.8866c1.0051-4.77469 4.02041-11.81334 9.04641-21.11143 4.6491-8.66986 7.3447-15.7669 8.0985-21.29549-6.0311 5.15164-10.743 8.8646-14.1356 11.12631-1.0051 2.2617-1.94571 4.52081-2.82531 6.78251-1.2564 2.88994-1.8866 5.09062-1.8866 6.59847s0.1264 3.5733 0.3774 6.21196c0.377 2.51299 0.5705 4.40321 0.5705 5.65976 0 3.64385-1.0665 6.96953-3.2025 9.98514l-27.71 0.94788c-11.0572 0-19.5988-0.94048-25.63-2.82528l13.565-10.93303 1.3252 0.9387c0 0.12629-0.2522 0.81407-0.7546 2.07064-0.377 1.13085-0.5706 2.08066-0.5706 2.83452 0 1.88467 1.3863 2.8253 4.1505 2.8253l5.4666-5.08921c0-1.38214-1.2602-2.51624-3.7732-3.3959-2.5129-0.87957-3.764-1.3828-3.764-1.50926l1.6933-1.13194c3.0156 1.25657 8.416 2.51662 16.2063 3.77318 7.0364 1.13085 12.32 2.64303 15.8382 4.52783v-4.71187l-8.1078-10.17842c-2.136 1.38213-4.0847 2.07063-5.8438 2.07063-1.0053 0-1.6936-0.31051-2.0707-0.9387 7.6647-1.38209 16.274-8.92477 25.82341-22.6207l-3.58921-0.19319c-6.2824-0.25114-11.8089 1.19333-16.5836 4.33456-2.7643 1.75913-6.468 5.346-11.1171 10.74897-4.649 5.27731-8.6048 8.98109-11.8717 11.11707l-0.7546-0.56137c0.7538-3.14122 5.2721-8.48322 13.565-16.02223 8.4186-7.66468 13.2564-14.01474 14.513-19.04076l-11.3104 2.83448-1.316-1.70255-12.8196 15.83819c0.1265 0.87957 0.1933 1.75254 0.1933 2.63201 0 6.03126-2.0747 11.69282-6.2212 16.97017 0-1.13085 0.1263-3.45758 0.3773-6.9758 0.1266-2.88994 0.1933-5.21666 0.1933-6.9758 0-11.55979-3.6453-19.34538-10.933-23.36617l-1.8866 9.98514c0 5.52859 3.4517 13.38184 10.3625 23.5594l-15.0744 19.60219h-24.8754l11.3012-15.45168c1.1308-0.87957 2.1975 1.88367 3.2026 8.29182l4.7119-9.99432 1.1319 0.37742 5.4665-6.97575-3.764-4.51864c-2.6386 0-5.5278 2.57881-8.6691 7.73045-0.3487 0.55793-0.6805 0.96711-1.0215 1.46323 0.1603-0.17859 0.2586-0.33219 0.4509-0.52458 1.1309-1.1308 2.013-1.63568 2.6413-1.50926 0.377 1.00514 0.6875 2.01343 0.9387 3.01857-0.7539 0.62809-1.3164 1.06489-1.6934 1.31598l-3.5799-0.37742c0.017-0.0858 0.057-0.18328 0.092-0.27612-2.286 2.93226-4.3937 4.42663-6.3132 4.42663l-0.7546-4.52784c0-0.25114 0.2522-1.12406 0.7546-2.63205 0.5027-1.63338 0.7547-2.89362 0.7547-3.77318 0-2.26171-1.4447-3.39586-4.3346-3.39586l-5.46654 5.08921 3.57994 3.5799c2.5129 2.38732 3.7732 4.33602 3.7732 5.84387l-9.99432 13.00365h-90.46445l-2.2639-0.75461 7.73043-7.72121 11.49442-3.01857 21.11143 6.22113c3.51823-1.25636 7.09594-2.44904 10.73976-3.57989 4.52341-1.38162 8.1687-1.82788 10.93304-1.32522-6.7851-6.65944-13.63008-9.98513-20.54085-9.98513-10.55463-5e-5 -18.65978 2.45277-24.31404 7.35308l-2.44797-0.57042c3.26688-4.14645 9.54942-7.72419 18.84752-10.73979 8.04162-2.6387 15.13863-3.95723 21.29548-3.95723l11.31037 1.50926 4.89593 8.47588 4.52783-3.76399c0-0.37695-0.44564-1.13298-1.32522-2.26392-0.87976-1.25638-1.25839-2.07092-1.13195-2.44797l4.1505-1.50926c2.63866 0.75386 5.21748 1.51002 7.73043 2.26392 3.89519 1.13085 5.83464 2.44938 5.83464 3.95723l-5.08921 4.89592c-0.37686 0.12629-0.61899-0.12628-0.74543-0.7546-0.2511-2.51304-0.44413-3.70642-0.57057-3.57995-0.87958 0.37695-1.31601 1.06555-1.31603 2.07068 0 1.75914 0.87282 2.83476 2.63203 3.21181l6.41443-6.22119c-1.75914-3.26689-5.71487-5.28325-11.87174-6.0371-5.52859-0.62828-8.30101-1.12303-8.30101-1.50007l4.90515-1.50927c18.59624 0 30.4051-4.33384 35.4311-13.00366l-15.46083-2.63205c-4.64905 0-10.67955 2.82161-18.09288 8.47587-7.28773 5.65426-13.69624 8.48506-19.22485 8.48506l-13.95159-0.18423c13.94719-5.15164 21.74194-12.7528 23.37535-22.80475-1.88476 0-10.87207 5.33272-26.95528 16.013-10.32829 6.88557-18.83491 12.72877-25.70367 17.62357 8.13606-6.10844 15.56781-16.1889 22.30782-30.2499l-0.9387-0.56142c-9.8007 1.88475-17.02374 6.09255-21.67281 12.62638-4.02078 5.65425-6.53206 13.75939-7.53716 24.31405l-15.46087 13.18776-8.29181-0.75467c15.32929-11.43417 24.24904-23.49512 26.76201-36.18577-2.38736 7.16206-7.97214 12.37802-16.76765 15.64495l-11.31037 19.22475c-0.50256-5.02602 2.00858-12.19066 7.53717-21.4887 6.15687-10.30338 9.5501-17.7784 10.17841-22.42747h-1.8866c-3.76949 3.39255-7.59924 6.78586-11.49442 10.17841-3.89517 4.14646-5.84383 8.6063-5.84383 13.38099l1.50927 11.50363-5.46652 10.92384c-9.04681 0.12632-18.1601 0.25113-27.33259 0.37742-14.70106 0-22.9322-0.74692-24.69136-2.25473l13.57427-10.93302 1.69333 0.9387c0 0.25114-0.25228 1.00739-0.75463 2.26387-0.37701 1.13085-0.56138 2.07142-0.56138 2.82528 0 1.75917 1.26013 2.64125 3.77318 2.64125l5.65058-5.28244c0-1.00515-0.88207-2.25614-2.64122-3.76399-0.84076-0.84074-1.50769-1.46012-2.01544-1.86821 8.43029 2.93545 18.57049 5.6338 30.47997 8.08935l0.56138-3.21182-8.47586-11.67847c-2.13604 1.25642-4.21075 1.88663-6.22116 1.88663-0.87956 0-1.32522-0.25208-1.32522-0.75465 0-4.39774 3.33491-8.54717 9.99435-12.44234 8.92116-5.02602 14.13706-8.41923 15.64492-10.17837-7.41335 1.0051-15.46013 3.89442-24.13 8.66911-9.29807 5.27731-15.70661 10.87135-19.22483 16.77689l-0.37734-2.07064c12.06244-9.92642 21.30176-20.86242 27.70991-32.79912l-10.93302 2.6412-1.31602-1.7025c-4.02078 2.01037-7.16206 5.21926-9.42377 9.617-1.38212 2.51299-2.95274 6.78845-4.71188 12.81966-1.75914 5.90554-3.32974 10.23934-4.71188 13.00366l-0.37732-10.17842c-0.12632-6.65934-0.69742-11.69097-1.70253-15.08353-1.50786-5.2773-4.32942-9.35907-8.47588-12.24905l-1.70253 10.3717c0 6.91077 3.39329 14.3858 10.17841 22.42742 0.12632 4.14646-1.697 7.97623-5.46653 11.4944-6.53383 6.03124-9.85872 9.10405-9.98514 9.23051-0.62828 0-3.1394 0.12632-7.53716 0.37744-4.27212 0.25065-7.60695 0.31992-9.99433 0.19317-3.39256-0.12632-5.65169-0.56217-6.78254-1.31597l11.11709-14.89029 1.13195 0.56137c0 0.50257-0.18445 1.25873-0.56138 2.26392-0.25057 0.87956-0.37732 1.50945-0.37732 1.88659 0 1.38213 1.06658 2.38105 3.2026 3.00932 1.00514-6.65943 4.77653-12.05981 11.31037-16.20626l-4.15051-4.71189-9.74588 8.88077c0.8176-0.51821 2.05463-0.90407 3.71797-1.15036l0.37734 2.82529c-1.88478 0.87957-2.69908 1.31603-2.44797 1.31603-0.75386 0-1.69449-0.31051-2.82529-0.9387-0.039-0.50611 0.10685-0.95515 0.40494-1.35283l-6.44202 5.87147-0.56139-4.3346c0-0.25114 0.25228-1.19191 0.75465-2.82529 0.50273-1.63337 0.74543-2.95208 0.74543-3.95722 0-2.38732-1.57056-3.57995-4.71188-3.57995l-5.45731 5.46654c0-0.12629 1.25104 1.06691 3.76398 3.57994 2.51298 2.38732 3.8308 4.33597 3.95723 5.84382l-14.89026 13.18775c-15.45499 0-30.90921 0.0678-46.36419 0.19319-25.88392-0.12632-39.89358-0.81402-42.0296-2.07064 7.79028-6.40816 14.45088-9.92736 19.97948-10.55569l20.35679 6.59846c3.14128-1.00515 6.21491-1.95501 9.23051-2.83448 4.5234-1.5079 7.98429-2.25472 10.37166-2.25472 1.13085 0 2.01294 0.12628 2.64123 0.37742-3.51822-1.88475-6.9791-3.83344-10.37167-5.84386-5.77993-3.14132-9.17327-4.71188-10.1784-4.71188-8.66985 0-17.02705 2.63719-25.06867 7.9145l-1.69334-0.37743c2.76432-4.39774 9.17283-8.16908 19.22484-11.31035 8.41856-2.6387 15.83524-3.95722 22.24341-3.95722l9.98512 1.88659 4.90514 8.47587 4.14131-3.95727c0-0.37695-0.25208-1.31744-0.75464-2.82529-0.50274-1.63338-0.75463-2.76757-0.75463-3.39586 0-0.75385 0.31961-1.12274 0.9479-1.12274 0.62828 0 1.5011 0.31051 2.63203 0.9387l7.73041 3.20262c0.37702-0.25067 0.75496-0.37743 1.13197-0.37743 0.87957 0 1.88771 0.50413 3.01856 1.50927s1.69333 1.81968 1.69333 2.44796c0 0.0424-0.0155 0.0862-0.0193 0.12864l0.77306-0.69024c-1.2566-3.14127-6.03598-5.65242-14.32891-7.53718l-5.83463 0.56138 5.46652-2.6412c8.66986 0 15.0692-0.49498 19.21563-1.50007 7.28776-1.75918 12.50365-5.47205 15.64491-11.12631l-14.31968-2.44796c-3.89519 0-8.17055 1.44461-12.81965 4.33455-7.16206 4.64907-11.87392 7.47992-14.13564 8.48506-6.7851 2.88989-14.82266 4.33455-24.12076 4.33455l-1.13197-0.57056c14.07286-8.04162 21.98431-15.64269 23.74348-22.8048l-12.62638 2.64125c-4.64906 9.67505-10.48592 16.52009-17.52231 20.54088l-24.50731 11.68763c8.41858-5.77992 16.52375-16.21179 24.31405-31.28981l-2.26392-0.75465c-10.80589 4.90035-17.96133 9.48624-21.47954 13.75836-4.02079 4.90031-6.28918 12.69503-6.79173 23.37531l-14.69702 12.62638-9.04645-0.18427c16.46016-12.81636 25.43821-25.07093 26.94607-36.75635-2.88994 7.79025-8.41637 13.00625-16.58361 15.64491l-11.49441 19.4089c8.66985-17.33973 14.26386-32.03788 16.77686-44.10029-8.79553 5.02602-14.45714 11.43456-16.97013 19.22485-1.00511 3.14127-2.19779 12.06095-3.57993 26.76203-0.87956 0-6.53198 0.12633-16.96093 0.37743-8.92113 0.25113-16.01818 0.25113-21.29548 0-7.66469-0.25116-13.03769 2.94486-16.13648 2.93772zm165.66751-24.91417-1.49086 1.32517c0.90949-0.24502 1.43406-0.6763 1.49086-1.32517zm-1.49086 1.32517c-0.5517 0.14796-1.2051 0.24832-2.07066 0.24832-1.75914 0-2.64123-0.44575-2.64123-1.32522l-1.13195 0.37742c-0.75401 0.75381-1.06514 1.38407-0.9387 1.88659l2.26392 2.82529zm596.44872-6.10151c0.2153-0.0504 0.4779-0.14701 0.7362-0.22994-0.024-9.9e-4 -0.067-0.0189-0.092-0.0189-0.2818 0-0.4891 0.0961-0.6442 0.24832zm0.7362-0.22994c0.6272 0.0236 1.5258 0.31664 2.7333 0.92028 2.5129 0.75399 5.0917 1.45159 7.7304 2.07982 4.2721 1.38214 6.2208 2.75919 5.8438 4.14132l-5.623 5.24565 0.1565 0.40475 6.2212-6.02791c-0.8796-1.50785-3.0803-3.1368-6.5985-4.89593-3.0156-1.38214-5.7204-2.2642-8.1078-2.64124-0.1263 0-0.6883 0.18422-1.6933 0.56137-0.253 0.0942-0.4415 0.14088-0.6626 0.21156zm10.6845 12.38707-1.5368-4.11371v1.50931c0.3769 1.75913 0.8718 2.6412 1.5001 2.6412zm-2.9541 40.3271-2.3375 1.82213c1.1921-0.68992 2.1481-1.31052 2.6228-1.78532-0.087 0-0.1946-0.033-0.2851-0.0377zm-612.09357-2.21792-2.23631 1.73933c1.20066-0.74168 2.06428-1.35839 2.25472-1.73933zm445.19915-51.26933c-2.3874 0-5.5286 2.13312-9.4238 6.40524-2.513 3.14127-5.0918 6.22416-7.7304 9.23967l-0.9387-4.71188c0-0.25115 0.3105-1.13335 0.9387-2.6412 0.6281-1.63342 0.9387-2.89361 0.9387-3.77318 0-1.88471-1.1926-2.82529-3.58-2.82529l-6.9665 4.33455c0 0.37695 1.3769 2.51007 4.1412 6.40519 2.89 3.76955 4.3346 6.79398 4.3346 9.05568 0 0.62827-0.1 1.20995-0.2945 1.75777l7.6476-10.05879 0.9387 0.75465-0.3774 1.50927c-0.1263 1.00513-0.1843 1.94572-0.1843 2.82528 0 2.38737 0.9405 3.4629 2.8253 3.21182l5.2733-5.46654-0.5614-4.52779c1.2566 0 2.7595-0.6885 4.5186-2.07069 1.7592-1.50784 2.6412-2.89389 2.6412-4.1505zm-32.9924 2.77007c0.4608 0.24078 0.8017 0.45517 1.178 0.68101l-0.23-0.43255zm1.178 0.68101 1.6565 3.14739-5.2825 5.08921-2.4479-2.26392 1.1319-2.44796-1.8866 3.20262 3.3959 1.88659 6.0279-6.0371c0-0.70631-0.9287-1.5764-2.5952-2.57683zm-549.63358-0.46931c-1.42791 1.96938-2.75625 4.04054-3.95724 6.24881l-1.32522-1.12275c1.77855-1.61688 3.53792-3.34788 5.28246-5.12606zm575.22678 4.55545c0 0.25114 0.057 0.62941 0.1843 1.13198 0.1263 0.50253 0.1932 0.88085 0.1932 1.13194 0 0.25114-0.3106 0.68774-0.9387 1.31603-0.6283 0.62809-1.1323 0.94789-1.5093 0.94789-1.1308 0-2.0806-0.31947-2.8345-0.94789 0.377-1.25643 0.9487-2.07097 1.7026-2.44797 0.2511-0.12628 1.3178-0.5037 3.2025-1.13198zm204.30422 1.13198 1.8866 0.37743v3.20261c-1.1308 0.62815-2.0714 0.94789-2.8253 0.94789-0.2511 0-0.6294-0.0679-1.1319-0.19318-0.5026-0.25067-0.939-0.37742-1.316-0.37742 0.2511-1.13104 0.6877-1.9454 1.316-2.44797 0.754-0.50276 1.4423-1.00674 2.0706-1.50926zm-216.67292 14.605-1.8314 2.40193c0.8775-0.68972 1.5002-1.486 1.8314-2.40193zm-528.74296 8.57695c3.14127 0 6.03047 0.12632 8.66913 0.37742-1.38214 3.39255-7.35422 8.35642-17.90883 14.89025-10.42895 6.40814-17.52598 9.6078-21.29549 9.60786h-3.39588c5.77994-4.27217 11.56753-8.60598 17.34746-13.00371 10.68027-7.91598 16.2066-11.87175 16.58361-11.87175zm132.49403 0.19317c-0.12631 0 21.86314 0.24268 65.96634 0.74547-3.39255 4.27213-6.71821 7.10292-9.98514 8.48506 1.13085-2.13607 1.94541-4.14316 2.44798-6.02791-1.75914 0.12633-3.01015 0.9986-3.76399 2.63206-0.62828 1.63333-1.19998 3.27169-1.70254 4.90511-1.00511 2.88995-4.90256 6.1572-11.68767 9.8011-6.7851 3.64383-11.93343 5.46654-15.45165 5.46649-4.0208 0-8.98474-0.68845-14.89029-2.07063-6.53381-1.63344-11.24569-3.45608-14.13564-5.46649 1.63342-1.00534 3.20403-1.50931 4.71188-1.50931 2.01041 0 4.96723 0.75615 8.86238 2.26391 3.89516 1.50785 6.96882 2.25473 9.23052 2.25473 3.39255 0 7.72637-1.37699 13.00369-4.14132 8.16723-4.5234 12.31584-6.79171 12.44229-6.79171-0.75383-1.13089-4.02115-2.32338-9.80106-3.57995-5.15167-1.25642-8.72936-1.87739-10.73979-1.87739-3.76951 0-8.22935 1.75503-13.381 5.27324-5.02602 3.51818-7.9828 5.27326-8.86239 5.27326h-2.82529c0.12651-1.13085 0.6884-2.57542 1.69334-4.33455 1.0053-1.75914 1.50929-2.82561 1.50929-3.20261 0-1.38214-0.6885-2.63309-2.07066-3.76394-1.38215-1.13086-2.82673-1.70255-4.33456-1.70255-2.88996 0-4.33458 1.13419-4.33458 3.39586 0 1.75911 0.68849 3.07765 2.07065 3.95721 1.38213 0.75405 2.76839 1.44235 4.15051 2.07069-0.377 3.51816-2.32562 5.28244-5.84383 5.28244-2.76433 0-7.29178-2.26835-13.57427-6.79171-4.77469-3.51826-8.85649-6.96992-12.24905-10.36247zm70.30092 0.56138c0.75383 0 2.01404 0.12632 3.77318 0.37742 1.88476 0.12632 3.32943 0.18427 4.33455 0.18427h1.13196c-4.02078 4.64899-10.30332 9.73898-18.84753 15.26759-9.54941 6.28249-16.77245 9.42376-21.67281 9.42376-0.62811 0-1.25835-0.12631-1.88659-0.37744 0.75385-0.50256 6.59996-4.89483 17.53151-13.18774 10.17766-7.79029 15.38461-11.68769 15.63573-11.68769zm99.32681 0.56142h99.89739c-4.5234 4.90032-7.7907 7.85729-9.8011 8.86234v-3.20257c1.5077-1.759 2.3216-2.82563 2.448-3.20262h-0.7546c-1.3822-0.12632-2.7007 1.37733-3.9573 4.51861-1.6334 3.89516-2.5742 6.03741-2.8253 6.41443-2.6386 3.01559-6.662 5.77878-12.065 8.29181-5.4029 2.38729-10.0472 3.5799-13.9423 3.5799-3.5183 0-8.4821-0.69774-14.8903-2.07982-7.2877-1.63342-11.8736-3.38855-13.7584-5.27326 2.3874-0.75386 4.21-1.13197 5.4666-1.13197 2.0104 0 5.0256 0.75596 9.0464 2.2639 4.0208 1.50786 7.1621 2.26392 9.4238 2.26392 3.1412 0 7.2814-1.51227 12.4331-4.52782 7.1621-4.14647 11.2439-6.40552 12.249-6.78252-3.2669-1.13085-6.4665-2.265-9.6078-3.39585-3.7695-1.25642-7.0952-1.8866-9.9851-1.8866-4.6491 0-9.5546 1.82264-14.7063 5.46649-5.1516 3.51818-8.0408 5.28245-8.6691 5.28245h-2.6412c0.377-2.76423 1.4434-5.34305 3.2026-7.73041 0-1.00515-0.8146-2.19781-2.448-3.57995-1.5078-1.50785-2.7588-2.26386-3.764-2.26386-3.0155 0-4.5278 1.26028-4.5278 3.77317 0 1.38215 0.6301 2.6331 1.8866 3.76399 1.2566 1.00524 2.5751 1.50927 3.9573 1.50927v2.82529l-5.6506 3.39585c-4.7747-0.12632-13.45155-5.84571-26.01659-17.15417zm284.9768 0.19319 18.8475 0.37742 1.1319 0.9387-9.9851 8.29177-0.2116-2.52155c-1.8847 5.02603-3.8786 6.03871-11.2919 10.81339-0.078 0.05-0.1518 0.0864-0.2299 0.1381l1.362-1.07678-22.2434 9.04644-28.6486-7.91448 4.7119-0.75461c2.136 0 5.1604 0.56245 9.0556 1.6933 3.0156 1.00514 6.0308 1.95497 9.0465 2.83453 2.0104-0.50257 13.3758-3.45688 17.5223-6.2212 4.1464-2.88993 7.2877-4.46059 9.4238-4.71188l-0.3775-1.50925c-1.3821-0.12633-4.0193-0.75566-7.9145-1.8866-3.7695-1.25656-6.4334-0.9649-7.6568-1.25157l-2.7056-0.63501-2.8345-0.75467-24.4981 10.74898-1.8866-0.19319 3.3958-7.15984-6.4051-5.84385-4.3346 3.57993c0 0.25115 0.9989 1.38548 3.0093 3.39585 2.136 2.01047 3.0764 3.20296 2.8253 3.57995l-5.6506 4.33456-25.63-16.96093zm23.9367 1.31602h9.2397c-5.026 5.65431-11.3761 10.99622-19.0408 16.02225-8.9211 5.65425-16.5223 8.48505-22.8047 8.48505 14.4497-10.93156 25.3181-19.10432 32.6058-24.5073zm-656.91947 5.46639c-1.80262 0.40072-5.41185 0.68723-8.48507 2.05221l-0.10264 13.96103c2.60596 0.45329 3.49851 0.37686 3.49851 0.37686 2.93448 0.038 7.09779-1.503 12.62637-4.51861 7.53902-4.27211 11.62076-6.53142 12.24904-6.78256-3.26689-1.13085-6.46654-2.20667-9.60781-3.21182-3.89518-1.25636-7.28847-1.87734-10.1784-1.87734zm345.55799 9.80119c0.12632 0 0.88172 0.31948 2.26392 0.9479 1.50785 0.50275 2.75884 0.74547 3.76399 0.74547-0.25129 0.50257-1.31784 1.32634-3.20261 2.45716-1.88476 1.00532-3.1357 1.50924-3.76398 1.50924-0.25129 0-0.94902-0.50412-2.07985-1.50924-1.50769-1.25658-2.32154-1.95348-2.44798-2.07984 0.50257 0 1.44322-0.31051 2.82528-0.9387 1.38215-0.75386 2.26423-1.13199 2.64123-1.13199z" color="#000000" fill="#524224" stroke="#241700" style="white-space:pre"/>
		<rect x="98.56044" y="61.117783" width="1.2542816" height="15.473809" fill="none" stroke-width=".264583"/>
	</g>
</svg>
