<?xml version="1.0" encoding="UTF-8"?>
<svg width="10.235127mm" height="10.235127mm" version="1.1" viewBox="0 0 10.235128 10.235128" xmlns="http://www.w3.org/2000/svg">
	<g transform="translate(-22.047256,-234.96299)">
		<circle cx="27.16482" cy="240.08055" r="5.1175632" fill="#517db3" stroke-width="0"/>
		<path d="m27.779796 237.06504q0 0.0647-0.0054 0.16184 0 0.0917-0.01619 0.19959l-0.485505 4.38032h-0.215779l-0.463926-4.38032q-0.04316-0.33985-0.04316-0.40998 0-0.36683 0.178018-0.56103 0.183413-0.19959 0.447742-0.19959 0.204991 0 0.404586 0.18341 0.199597 0.17802 0.199597 0.62576zm-0.02158 6.21984q0 0.25354-0.178018 0.43695-0.178018 0.18342-0.415375 0.18342-0.183413 0-0.393798-0.14566-0.210384-0.14564-0.210384-0.47471 0-0.28591 0.199596-0.43156 0.199596-0.15104 0.404586-0.15104 0.210385 0 0.399191 0.15644 0.194202 0.15644 0.194202 0.42616z" fill="#fff" stroke="#fff" stroke-width=".254946"/>
	</g>
</svg>
