<?xml version="1.0" encoding="UTF-8" standalone="no"?>
<!-- Created with Inkscape (http://www.inkscape.org/) -->

<svg
   width="3.8858705mm"
   height="3.9319544mm"
   viewBox="0 0 3.8858705 3.9319544"
   version="1.1"
   id="svg5"
   sodipodi:docname="fleur-de-lis.svg"
   inkscape:version="1.1 (c4e8f9ed74, 2021-05-24)"
   xmlns:inkscape="http://www.inkscape.org/namespaces/inkscape"
   xmlns:sodipodi="http://sodipodi.sourceforge.net/DTD/sodipodi-0.dtd"
   xmlns="http://www.w3.org/2000/svg"
   xmlns:svg="http://www.w3.org/2000/svg">
  <sodipodi:namedview
     id="namedview7"
     pagecolor="#ffffff"
     bordercolor="#666666"
     borderopacity="1.0"
     inkscape:pageshadow="2"
     inkscape:pageopacity="0.0"
     inkscape:pagecheckerboard="0"
     inkscape:document-units="mm"
     showgrid="false"
     inkscape:zoom="45.254834"
     inkscape:cx="10.551359"
     inkscape:cy="7.6345435"
     inkscape:window-width="1920"
     inkscape:window-height="1025"
     inkscape:window-x="1920"
     inkscape:window-y="0"
     inkscape:window-maximized="1"
     inkscape:current-layer="layer1"
     fit-margin-top="0"
     fit-margin-left="0"
     fit-margin-right="0"
     fit-margin-bottom="0" />
  <defs
     id="defs2">
    <rect
       x="25.659634"
       y="362.48965"
       width="503.27652"
       height="202.70065"
       id="rect2079" />
  </defs>
  <g
     inkscape:label="Layer 1"
     inkscape:groupmode="layer"
     id="layer1"
     transform="translate(-44.696089,-113.18482)">
    <text
       xml:space="preserve"
       transform="scale(0.26458333)"
       id="text2077"
       style="font-style:normal;font-weight:normal;font-size:40px;line-height:1.25;font-family:sans-serif;white-space:pre;shape-inside:url(#rect2079);fill:#000000;fill-opacity:1;stroke:none" />
    <path
       id="text3119"
       style="font-style:normal;font-weight:normal;font-size:10.5833px;line-height:1.25;font-family:sans-serif;fill:#857251;fill-opacity:1;stroke:none;stroke-width:0.999999"
       d="m 175.9707,427.78516 c -0.91999,0.91999 -2.07898,2.67906 -1.95898,4.03906 0.08,1.16 0.56016,1.72172 1.16016,2.76172 0.19999,0.32 0.4796,0.99937 0.5996,1.35937 0.16,0.76 0.16016,0.88071 0.16016,1.72071 v 0.23828 c -0.04,1.39999 -0.7207,2.6418 -0.7207,3.84179 0,1.2 2.12109,1.2 2.12109,0 0,-1.19999 -0.6807,-2.4418 -0.7207,-3.84179 v -0.23828 c 0,-0.84 1.5e-4,-0.96071 0.16015,-1.72071 0.12,-0.36 0.39961,-1.03937 0.59961,-1.35937 0.6,-1.04 1.08016,-1.60172 1.16016,-2.76172 0.08,-1.36 -1.00094,-3.11907 -1.96094,-4.03906 h -0.27929 -0.0391 z m -4.67968,5.40039 c -1.04,0 -2.0393,0.83977 -2.2793,1.75976 -0.28,1 0.19984,1.83954 0.83984,2.51953 0.72,0.68 0.83938,0.35977 1.35938,-0.24023 0.28,-0.24 0.64094,-0.43961 0.96094,-0.59961 0.67999,-0.24 1.35992,-0.20078 1.91992,0.19922 0.48,0.32 0.79883,0.88039 0.79882,1.40039 0,0.44 -0.0792,0.71992 -0.19921,0.91992 -0.28,0.36 -0.96032,0.68125 -1.32032,0.28125 -0.32,-0.36 -0.0406,-0.72055 -0.64062,-0.56055 -0.16,0.04 -0.23938,0.11922 -0.35938,0.19922 -0.2,0.24 -0.27929,0.44164 -0.27929,0.68164 -0.04,0.24 0.12031,0.51875 0.32031,0.71875 0.44,0.36 1.35883,0.40008 1.79883,0.0801 0.12,-0.08 0.27937,-0.16031 0.35937,-0.32031 0.28,-0.32 0.52164,-0.64008 0.68164,-1.08008 0.28,-0.92 0.36,-2.16 0,-3 -0.67999,-1.67999 -1.68094,-2.95898 -3.96093,-2.95898 z m 10,0 c -2.28,0 -3.32001,1.27899 -4,2.95898 -0.36,0.84 -0.28,2.08 0,3 0.16,0.44 0.39968,0.76008 0.67968,1.08008 0.12,0.16 0.20133,0.24031 0.36133,0.32031 0.44,0.32 1.31883,0.27992 1.79883,-0.0801 0.2,-0.2 0.36133,-0.47875 0.36133,-0.71875 -0.04,-0.24 -0.12032,-0.44164 -0.32031,-0.68164 -0.12,-0.08 -0.20133,-0.15922 -0.36133,-0.19922 -0.6,-0.16 -0.27868,0.20055 -0.63867,0.56055 -0.36,0.4 -1.04126,0.0788 -1.28126,-0.28125 -0.19999,-0.2 -0.24023,-0.47992 -0.24023,-0.91992 0,-0.52 0.3218,-1.08039 0.8418,-1.40039 0.52,-0.4 1.19891,-0.43922 1.8789,-0.19922 0.32,0.16 0.68094,0.35961 0.96094,0.59961 0.52,0.6 0.67938,0.92023 1.35938,0.24023 0.67999,-0.67999 1.11984,-1.51953 0.83984,-2.51953 -0.24,-0.91999 -1.24024,-1.75976 -2.24023,-1.75976 z"
       transform="scale(0.26458333)" />
  </g>
</svg>
